<svg xmlns="http://www.w3.org/2000/svg" width="1500" height="820" viewBox="0 0 1500 820">\n<rect width="100%" height="100%" fill="white"/>\n<text x="750" y="30" text-anchor="middle" font-family="Arial" font-size="22" font-weight="700">Bybit BTCUSDT 2Y All Filter Suite Top 10</text>\n<text x="750" y="55" text-anchor="middle" font-family="Arial" font-size="14" fill="#444">19 versions: baseline + 9 filters x 2 params | all TF/RR scanned</text>\n<line x1="90" y1="75.0" x2="1070" y2="75.0" stroke="#ddd"/>\n<text x="80" y="79.0" text-anchor="end" font-family="Arial" font-size="12" fill="#555">16452</text>\n<line x1="90" y1="185.8" x2="1070" y2="185.8" stroke="#ddd"/>\n<text x="80" y="189.8" text-anchor="end" font-family="Arial" font-size="12" fill="#555">15003</text>\n<line x1="90" y1="296.7" x2="1070" y2="296.7" stroke="#ddd"/>\n<text x="80" y="300.7" text-anchor="end" font-family="Arial" font-size="12" fill="#555">13554</text>\n<line x1="90" y1="407.5" x2="1070" y2="407.5" stroke="#ddd"/>\n<text x="80" y="411.5" text-anchor="end" font-family="Arial" font-size="12" fill="#555">12105</text>\n<line x1="90" y1="518.3" x2="1070" y2="518.3" stroke="#ddd"/>\n<text x="80" y="522.3" text-anchor="end" font-family="Arial" font-size="12" fill="#555">10655</text>\n<line x1="90" y1="629.2" x2="1070" y2="629.2" stroke="#ddd"/>\n<text x="80" y="633.2" text-anchor="end" font-family="Arial" font-size="12" fill="#555">9206</text>\n<line x1="90" y1="740.0" x2="1070" y2="740.0" stroke="#ddd"/>\n<text x="80" y="744.0" text-anchor="end" font-family="Arial" font-size="12" fill="#555">7757</text>\n<line x1="135.7" y1="75" x2="135.7" y2="740" stroke="#eee"/>\n<text x="135.7" y="765" text-anchor="middle" font-family="Arial" font-size="12" fill="#555">2024-07</text>\n<line x1="382.8" y1="75" x2="382.8" y2="740" stroke="#eee"/>\n<text x="382.8" y="765" text-anchor="middle" font-family="Arial" font-size="12" fill="#555">2025-01</text>\n<line x1="625.8" y1="75" x2="625.8" y2="740" stroke="#eee"/>\n<text x="625.8" y="765" text-anchor="middle" font-family="Arial" font-size="12" fill="#555">2025-07</text>\n<line x1="872.9" y1="75" x2="872.9" y2="740" stroke="#eee"/>\n<text x="872.9" y="765" text-anchor="middle" font-family="Arial" font-size="12" fill="#555">2026-01</text>\n<line x1="90" y1="75" x2="90" y2="740" stroke="#222"/>\n<line x1="90" y1="740" x2="1070" y2="740" stroke="#222"/>\n<polyline points="90.0,568.4 98.4,577.3 103.2,585.3 107.9,595.4 116.1,603.5 126.3,611.8 135.5,619.7 145.1,627.2 145.9,634.6 151.2,642.4 154.3,615.3 160.6,623.0 163.5,631.4 166.2,638.7 168.0,612.1 171.8,619.7 177.1,592.2 182.7,562.7 192.8,571.0 205.2,578.9 212.1,587.5 219.7,595.3 235.9,603.0 251.5,611.5 274.8,619.2 277.5,591.4 280.0,599.0 281.5,571.6 289.8,541.8 312.6,550.3 346.7,519.3 348.6,528.1 355.7,536.7 370.8,545.3 371.5,553.6 372.8,561.8 373.1,572.3 380.7,581.4 390.4,552.2 394.3,560.4 394.6,568.5 398.9,577.5 399.5,548.5 403.8,556.8 404.4,527.4 408.7,535.9 413.5,544.5 439.9,552.5 440.9,561.3 442.9,531.8 447.6,541.0 450.1,511.2 456.5,479.0 461.6,487.8 477.5,496.6 483.2,505.5 506.3,514.3 521.9,523.3 530.3,532.1 535.9,540.8 544.5,510.5 549.7,520.2 552.0,488.8 554.2,456.2 555.4,466.7 558.8,476.5 561.5,486.8 567.9,495.8 573.1,505.2 579.3,514.2 582.4,482.7 588.2,492.0 592.0,459.5 597.5,425.4 600.0,435.2 601.3,456.7 602.0,467.0 606.8,433.6 617.4,443.1 626.7,410.5 634.6,420.8 638.5,432.6 648.5,442.1 653.8,451.9 658.2,461.7 679.7,471.1 700.9,437.1 721.9,446.5 737.2,461.7 746.3,471.4 762.3,481.6 771.3,491.2 776.5,500.1 777.6,508.6 787.1,477.1 795.4,443.6 796.5,452.9 804.5,418.7 806.9,383.0 808.0,393.1 809.6,403.0 814.1,367.5 890.3,329.3 897.1,340.1 900.7,350.6 907.5,361.7 908.8,373.1 918.2,383.2 919.9,394.3 930.6,404.8 934.4,369.0 936.0,380.6 938.2,390.7 947.1,407.6 956.7,371.2 957.0,338.0 968.9,298.7 970.0,261.6 972.2,273.7 975.8,232.2 982.1,244.2 1005.8,201.2 1015.8,213.4 1018.9,226.1 1038.2,182.6 1054.6,194.7 1063.4,151.1 1068.6,164.3 1070.0,120.9" fill="none" stroke="#1f77b4" stroke-width="2"/>\n<line x1="1090" y1="80" x2="1118" y2="80" stroke="#1f77b4" stroke-width="3"/>\n<text x="1126" y="84" font-family="Arial" font-size="11" fill="#222">1. atr_p70 2h->30m RR 4 (+58.5%)</text>\n<polyline points="90.0,568.4 93.0,578.4 98.8,586.4 100.3,594.3 100.8,603.1 104.4,579.4 108.5,589.0 110.9,564.1 111.2,573.0 112.4,581.5 117.4,557.9 121.2,567.1 126.6,541.0 126.8,514.4 131.1,523.4 135.5,532.4 137.7,542.7 140.4,551.5 153.4,524.8 158.1,533.4 163.5,542.4 166.0,516.0 170.5,525.0 171.7,534.3 177.1,507.9 180.9,516.7 181.8,526.6 182.7,535.0 191.8,543.7 192.7,552.8 198.4,561.1 200.3,570.3 202.2,580.2 203.6,589.2 204.9,597.6 208.0,572.4 212.8,547.3 213.4,556.4 214.4,564.9 217.1,573.4 219.7,548.2 220.2,557.6 221.7,531.5 222.4,541.0 223.0,514.0 224.5,524.6 226.4,497.0 229.2,506.4 230.6,478.3 231.8,488.5 235.7,497.9 235.9,507.1 238.6,517.0 239.0,490.0 240.7,499.1 246.8,509.0 260.1,517.8 260.2,526.5 261.3,536.0 262.6,544.7 271.1,553.2 272.3,527.3 273.5,500.2 276.0,510.2 277.5,482.2 280.0,490.9 280.4,501.0 282.0,510.3 283.1,519.8 285.2,532.8 285.9,542.7 286.9,516.2 289.1,527.4 292.4,536.9 296.3,547.2 296.9,521.0 298.2,530.3 307.6,538.7 308.3,547.7 310.0,556.9 313.5,532.6 314.2,541.1 315.6,549.8 316.7,558.3 319.6,531.7 327.1,504.2 328.3,476.2 330.1,485.7 332.6,495.2 333.9,468.0 338.3,477.9 338.6,450.1 340.7,461.8 342.7,472.0 346.1,481.5 346.7,452.4 348.8,461.4 353.2,470.9 358.7,480.4 360.0,490.9 363.4,500.6 366.3,509.4 367.0,518.3 370.1,527.4 371.5,537.2 374.4,546.0 385.0,554.7 389.8,610.9 390.3,619.5 392.4,628.1 393.1,604.5 394.3,612.1 394.6,619.8 398.8,628.9 399.3,636.9 400.8,613.9 402.3,590.1 402.9,598.3 408.0,573.0 413.5,580.9 417.8,555.2 420.0,564.3 425.7,539.5 426.5,513.0 427.1,485.4 431.4,495.0 432.0,504.8 435.9,478.8 439.9,487.9 440.0,497.6 440.8,507.0 444.4,519.6 448.3,492.2 450.7,503.7 455.2,516.1 456.0,525.6 459.0,533.9 465.1,542.8 465.3,551.9 473.1,561.2 474.6,569.6 474.9,577.6 487.5,551.4 492.9,560.1 496.5,568.9 498.1,578.6 498.3,589.0 503.0,597.7 503.1,605.5 507.1,581.4 510.9,591.2 511.6,599.3 514.6,607.4 523.2,582.7 526.0,591.5 529.6,600.2 530.3,609.9 531.9,617.8 533.9,625.7 535.0,633.4 540.5,610.1 543.3,619.7 544.5,596.5 549.3,571.8 550.5,580.8 556.4,589.1 557.8,597.4 560.7,607.6 563.0,616.1 567.2,627.8 567.9,604.8 569.0,580.5 570.3,589.6 571.6,598.4 574.1,573.9 579.6,549.6 582.9,522.9 586.1,532.3 587.4,506.2 591.6,516.2 591.7,525.4 596.9,498.6 601.1,508.8 601.7,481.1 604.0,492.0 606.5,464.1 607.8,476.3 610.6,487.6 637.7,458.4 639.1,469.7 639.6,441.4 642.8,451.4 642.9,463.8 643.3,474.8 644.3,484.8 645.3,494.8 648.0,504.1 649.5,513.1 654.8,523.3 656.2,532.1 656.9,543.1 659.2,517.7 661.7,493.1 665.8,504.0 667.2,514.1 668.2,523.5 676.1,532.7 677.3,543.1 678.0,553.0 680.0,563.8 684.4,538.1 695.4,511.2 696.0,521.9 723.8,530.5 732.6,541.9 734.1,517.1 736.8,531.3 737.3,541.6 738.8,550.6 742.3,524.9 746.6,498.3 747.9,470.4 756.6,480.9 762.3,451.9 765.5,462.4 771.5,432.8 773.6,445.7 775.1,455.8 778.8,466.1 779.9,437.1 783.6,407.1 786.4,378.2 788.9,389.0 793.9,399.4 794.3,410.4 807.5,379.8 813.6,347.1 814.7,358.0 816.1,368.3 818.6,335.0 821.2,346.5 822.9,357.5 824.5,368.4 825.0,379.2 828.2,390.1 831.4,357.9 833.5,325.2 836.3,336.3 839.9,349.3 851.1,315.4 853.6,328.3 856.3,294.2 858.9,261.2 860.0,272.9 863.0,284.3 864.4,298.8 869.0,310.6 873.9,282.1 874.8,249.0 879.8,262.9 880.5,275.4 884.7,288.5 887.2,308.4 889.6,320.5 897.1,332.7 899.3,300.8 899.4,312.3 900.6,324.4 900.9,334.9 906.2,301.3 908.8,313.2 911.4,278.5 912.7,290.8 916.6,301.9 918.8,313.6 922.6,324.3 928.3,289.9 931.5,300.8 933.8,312.0 936.6,323.3 936.9,335.5 942.2,346.0 943.5,314.8 944.2,281.0 946.9,245.5 950.1,257.5 954.3,269.7 955.8,281.1 971.7,295.4 972.0,309.9 976.1,274.9 977.4,286.5 981.6,250.8 986.4,262.8 987.1,276.1 988.1,288.3 991.3,300.3 992.5,266.4 993.4,277.8 994.2,244.0 995.2,256.2 998.7,223.7 1012.0,185.4 1014.7,198.5 1025.2,212.9 1025.7,226.2 1028.6,191.2 1029.0,204.2 1036.6,216.9 1037.7,234.6 1038.0,248.2 1038.7,259.7 1041.4,223.5 1043.0,186.1 1045.7,200.9 1049.7,213.2 1051.1,176.2 1051.7,189.3 1053.6,202.4 1056.3,221.2 1056.8,237.3 1057.7,201.8 1065.6,168.2 1066.8,184.8 1067.7,150.4 1070.0,165.2" fill="none" stroke="#d62728" stroke-width="2"/>\n<line x1="1090" y1="107" x2="1118" y2="107" stroke="#d62728" stroke-width="3"/>\n<text x="1126" y="111" font-family="Arial" font-size="11" fill="#222">2. volume_p60 15m->15m RR 3.5 (+52.7%)</text>\n<polyline points="90.0,568.4 98.4,577.3 103.2,585.3 107.9,595.4 116.1,603.5 126.3,611.8 130.1,620.7 135.5,628.5 145.1,635.9 145.9,643.3 151.2,650.9 151.5,659.6 160.6,666.8 163.5,674.5 166.2,681.4 167.4,694.1 168.0,669.7 171.8,676.7 177.1,651.3 182.7,624.2 188.0,596.1 192.8,604.0 205.2,611.6 207.8,619.1 212.1,627.3 212.7,636.3 219.7,643.6 235.9,650.8 253.3,624.4 274.8,632.0 277.3,604.7 280.0,612.2 281.5,585.3 289.8,556.0 312.6,564.7 346.7,534.2 348.6,542.9 355.7,551.3 370.8,559.7 371.5,567.9 372.8,575.9 373.1,588.7 380.7,597.6 390.4,569.1 394.3,577.1 394.6,585.1 398.9,593.8 399.5,565.4 403.8,573.5 404.4,544.8 408.7,553.1 413.5,561.5 418.0,531.3 425.9,499.9 439.9,508.5 440.9,517.7 442.9,486.5 445.6,497.3 447.6,506.9 450.1,475.9 452.3,442.9 455.5,452.9 456.0,463.1 461.6,472.3 477.5,481.2 483.2,490.3 484.2,500.2 506.3,509.0 514.7,536.8 520.9,545.5 521.9,554.2 525.3,563.6 530.3,571.9 535.9,580.2 544.5,551.4 549.7,560.6 553.4,530.6 554.5,499.3 555.4,509.3 558.8,518.6 562.3,527.7 567.9,536.3 568.9,545.4 573.1,554.2 579.3,562.7 582.4,533.0 584.1,543.1 586.7,552.6 592.0,522.5 597.5,490.8 600.0,499.9 601.3,519.9 602.0,529.4 605.5,539.3 617.4,547.6 619.3,556.3 626.7,527.9 634.6,536.9 638.5,547.2 648.5,555.6 653.8,564.2 658.2,572.7 668.7,543.1 673.7,513.3 676.6,481.8 700.9,448.2 705.8,457.9 710.3,468.8 710.4,478.2 742.3,487.4 746.3,496.8 756.7,506.6 762.3,516.4 770.4,525.2 771.3,534.4 776.5,542.8 777.6,550.9 787.1,521.0 795.4,489.2 796.5,498.0 804.5,465.6 804.7,475.0 808.2,441.3 809.6,450.7 814.1,417.1 890.3,380.8 897.1,391.1 900.7,401.1 907.5,411.5 908.8,422.4 918.2,432.0 919.9,442.5 922.3,407.5 929.6,417.4 930.6,427.6 934.4,392.7 936.0,404.0 936.3,414.5 938.2,424.3 944.2,434.4 951.2,443.7 956.7,408.8 957.0,376.8 968.9,339.2 970.0,303.5 972.2,315.1 975.8,275.2 982.1,286.7 991.1,299.2 1005.8,258.4 1006.6,271.1 1015.8,282.5 1019.0,294.4 1038.2,253.6 1054.6,264.9 1063.4,224.0 1068.6,236.3 1070.0,195.6" fill="none" stroke="#2ca02c" stroke-width="2"/>\n<line x1="1090" y1="134" x2="1118" y2="134" stroke="#2ca02c" stroke-width="3"/>\n<text x="1126" y="138" font-family="Arial" font-size="11" fill="#222">3. atr_p60 2h->30m RR 4 (+48.7%)</text>\n<polyline points="90.0,568.4 100.3,576.5 110.9,551.1 126.8,524.1 138.6,496.6 168.0,468.2 182.7,477.1 187.9,447.4 213.4,417.8 225.4,427.6 230.9,396.6 272.1,409.3 287.0,378.3 307.7,388.2 317.8,398.0 394.7,407.8 399.3,417.6 427.2,386.0 438.9,396.1 487.2,406.8 526.1,418.3 531.9,428.1 557.3,437.9 571.7,407.1 577.9,417.4 592.0,386.5 638.9,353.7 649.5,365.0 667.5,375.3 675.0,385.9 684.7,354.0 789.1,364.2 816.1,374.4 818.6,341.4 841.1,351.8 860.0,362.4 879.1,373.2 903.5,383.2 911.6,350.4 944.2,317.6 977.2,282.5 981.6,246.8 1003.0,258.4 1004.6,270.1 1038.2,233.6 1038.7,245.2 1049.7,256.6 1051.1,220.7 1053.7,233.1" fill="none" stroke="#ff7f0e" stroke-width="2"/>\n<line x1="1090" y1="161" x2="1118" y2="161" stroke="#ff7f0e" stroke-width="3"/>\n<text x="1126" y="165" font-family="Arial" font-size="11" fill="#222">4. volume_p60 15m->1h RR 3.5 (+43.9%)</text>\n<polyline points="90.0,568.4 98.8,576.6 110.3,585.4 112.2,593.6 122.7,575.8 126.3,584.1 126.8,592.5 132.7,574.7 139.5,582.9 144.5,565.2 145.9,573.1 152.3,554.8 154.3,536.5 159.4,517.3 165.2,527.4 171.8,535.9 175.5,517.0 178.1,526.5 182.0,535.6 182.7,516.1 189.3,525.0 193.9,534.2 194.4,515.0 196.5,495.0 203.1,474.6 203.6,454.1 207.6,464.7 212.1,474.7 219.7,453.7 220.9,463.0 231.8,473.3 233.3,482.4 234.5,492.1 235.9,501.5 241.2,481.6 252.8,492.1 256.5,502.9 257.2,514.8 259.9,524.7 261.1,534.4 263.7,542.9 268.3,551.2 272.3,532.1 273.7,512.7 276.2,493.8 283.1,474.0 285.2,487.7 286.1,468.6 286.9,448.3 298.2,458.6 301.7,468.0 320.3,477.3 323.5,457.3 327.9,435.8 333.6,414.6 343.0,393.3 346.1,403.7 353.0,381.2 354.0,392.2 358.7,402.5 359.9,413.3 364.3,423.0 367.3,400.9 370.8,378.3 371.5,356.0 376.9,366.3 384.4,376.8 387.9,388.4 394.4,398.6 398.9,409.5 399.5,387.9 401.6,398.0 403.9,408.5 410.5,418.4 412.4,396.4 414.5,409.1 417.6,389.3 424.2,366.6 425.6,345.0 428.0,321.0 436.4,297.9 439.9,273.0 445.6,286.6 446.8,300.0 452.0,274.9 456.4,249.9 459.1,223.5 470.1,196.4 474.4,208.9 478.8,221.3 487.2,194.2 492.2,206.9 492.8,222.1 493.7,235.1 498.7,209.0 501.6,230.6 508.3,243.0 511.3,218.1 515.1,230.2 520.9,242.9 523.8,254.4 530.5,228.8 531.5,241.4 533.9,253.5 536.5,265.3 539.8,279.2 540.4,254.7 543.3,266.5 545.3,279.4 549.2,254.6 549.7,267.3 551.9,241.9 556.4,253.9 558.8,265.7 559.5,277.8 564.2,289.3 564.9,301.0 568.9,312.7 570.2,288.7 570.2,302.0 573.1,313.5 580.1,324.9 587.7,336.2 591.7,347.5 596.9,323.9 601.7,334.8 604.7,348.7 605.5,360.5 614.4,372.0 615.0,383.1 619.3,393.6 623.7,378.6 625.7,389.9 634.6,400.5 638.5,412.6 648.0,422.6 649.8,401.5 652.6,380.6 653.8,391.1 657.1,402.2 661.7,412.3 664.2,423.0 668.2,433.6 671.1,445.1 673.6,455.2 679.7,434.8 685.0,413.4 699.5,422.9 700.1,401.9 705.6,412.2 711.9,423.2 721.9,401.5 730.7,379.7 734.1,391.2 736.9,373.7 737.2,390.2 738.9,403.3 749.9,382.9 754.9,394.1 756.8,372.7 757.2,350.7 759.0,362.4 760.8,373.0 762.6,349.6 767.0,326.7 769.0,337.8 771.2,349.1 775.2,325.8 779.9,336.3 788.6,312.0 790.6,323.0 792.6,335.0 798.0,345.9 798.6,356.7 802.5,368.1 806.7,344.6 809.6,355.0 812.4,331.6 816.1,307.4 826.1,282.1 826.5,294.0 831.4,268.6 833.3,280.7 840.2,256.0 840.2,267.4 841.5,279.9 842.9,291.3 849.4,269.5 860.2,280.5 863.0,259.4 864.4,272.6 865.7,283.7 872.5,295.6 873.0,308.3 873.2,322.3 880.6,334.0 887.5,348.9 888.1,361.1 897.1,337.7 906.1,349.6 910.2,360.2 914.1,336.5 918.3,312.2 920.8,323.2 925.9,299.1 930.6,310.6 935.5,321.9 936.6,333.1 936.9,344.9 938.3,355.6 939.4,366.9 942.7,377.9 943.5,357.9 944.2,370.4 947.7,347.2 951.2,323.1 954.4,298.5 964.4,273.3 969.1,247.5 972.2,259.7 975.7,233.8 978.5,246.1 981.9,258.3 986.1,270.1 993.0,281.4 1000.5,292.6 1003.2,267.1 1005.4,278.7 1005.8,254.7 1007.1,229.6 1010.6,242.8 1012.3,254.4 1014.7,229.7 1015.0,241.9 1019.0,254.8 1020.5,229.1 1025.3,242.6 1031.6,217.8 1034.3,230.4 1037.5,243.1 1037.9,222.7 1054.6,234.3 1058.0,247.6 1058.9,261.1 1059.9,274.3 1061.7,286.5 1064.8,262.2 1068.5,274.5 1069.8,250.3" fill="none" stroke="#9467bd" stroke-width="2"/>\n<line x1="1090" y1="188" x2="1118" y2="188" stroke="#9467bd" stroke-width="3"/>\n<text x="1126" y="192" font-family="Arial" font-size="11" fill="#222">5. volume_p60 1h->30m RR 2.5 (+41.6%)</text>\n<polyline points="90.0,568.4 100.3,576.5 110.9,554.9 126.8,531.9 138.5,508.7 167.8,484.8 182.7,493.5 187.9,468.6 213.1,444.0 225.4,453.6 230.8,427.8 272.1,440.1 286.9,414.6 307.7,424.1 317.8,433.6 394.7,443.0 399.3,452.5 427.2,426.5 438.9,436.1 487.2,446.4 526.1,457.3 531.9,466.7 557.3,476.1 571.6,450.9 577.9,460.7 592.0,435.6 637.7,409.1 648.5,382.8 667.5,392.9 675.0,403.3 684.7,376.6 789.1,386.6 816.1,396.5 818.3,369.0 841.1,379.1 860.0,389.4 879.1,400.0 903.5,409.6 911.5,382.4 944.2,355.4 976.8,326.5 980.4,297.3 1003.0,308.4 1004.6,319.6 1022.8,289.7 1038.7,300.8 1049.7,311.6 1051.1,282.6 1052.5,252.4" fill="none" stroke="#8c564b" stroke-width="2"/>\n<line x1="1090" y1="215" x2="1118" y2="215" stroke="#8c564b" stroke-width="3"/>\n<text x="1126" y="219" font-family="Arial" font-size="11" fill="#222">6. volume_p60 15m->1h RR 3 (+41.3%)</text>\n<polyline points="90.0,568.4 98.8,576.6 112.2,584.9 122.7,566.9 126.3,575.2 126.8,583.7 132.7,565.7 139.5,574.0 144.3,582.5 145.9,590.2 152.3,572.4 154.3,554.4 159.4,535.7 165.2,544.3 171.8,552.7 175.5,534.2 178.1,543.5 182.7,524.2 189.3,533.0 193.9,542.1 194.4,523.1 196.5,503.3 203.1,483.1 203.6,462.8 207.6,473.3 212.1,483.2 219.7,462.5 220.9,471.7 231.8,481.9 233.3,490.9 234.5,500.5 235.9,509.8 241.2,490.0 252.8,500.5 259.9,510.6 261.1,520.4 263.7,529.1 268.3,537.5 272.3,518.2 273.7,498.3 276.2,479.1 283.1,459.0 285.5,444.5 286.1,424.5 286.9,403.1 298.2,414.0 301.7,423.7 320.3,433.5 323.5,412.4 327.9,389.9 333.9,400.3 343.0,378.7 346.1,389.2 353.0,366.4 358.7,377.0 359.9,388.1 364.3,398.0 368.3,407.9 371.5,386.3 376.9,396.2 384.4,406.4 387.9,417.7 394.4,427.5 398.9,438.1 399.5,417.2 403.9,427.5 410.5,437.1 417.6,418.0 424.2,395.9 428.0,373.1 436.4,351.2 439.9,327.6 445.6,340.4 446.8,353.2 452.0,329.3 456.4,305.7 459.1,280.6 470.1,254.9 487.2,228.7 493.7,241.6 500.2,215.0 508.2,228.0 515.1,240.0 520.9,252.5 523.8,264.0 530.5,238.6 531.5,251.1 533.9,263.1 536.5,274.8 539.8,288.6 540.4,264.3 543.3,275.9 549.2,251.0 549.7,263.8 551.9,238.2 556.4,250.3 558.8,262.1 559.5,274.3 564.2,285.8 564.9,297.5 568.9,309.3 570.2,285.2 570.2,298.6 580.1,310.1 587.7,321.7 591.7,333.1 596.9,309.2 601.7,320.2 604.7,334.3 605.5,346.2 615.0,357.6 619.3,368.5 624.1,381.1 634.6,391.8 648.0,402.1 649.8,380.4 652.6,359.1 653.8,369.8 657.1,381.1 661.7,391.5 664.2,402.4 668.2,412.9 671.1,424.6 673.6,434.9 679.7,445.8 685.0,424.6 699.5,434.0 700.1,413.3 705.6,423.5 721.9,401.8 730.7,379.9 734.1,391.4 737.3,404.3 738.9,417.2 749.9,397.1 754.9,408.2 756.8,387.1 757.2,365.4 759.0,377.0 760.8,387.4 762.6,364.3 766.3,375.1 769.0,385.6 771.2,396.3 775.2,374.2 779.9,384.2 788.6,361.0 798.0,371.6 798.6,382.2 806.7,359.1 809.6,369.4 812.4,346.3 826.1,321.9 826.5,333.3 831.4,308.9 833.3,320.5 840.2,296.8 840.2,307.7 841.5,319.8 842.9,330.7 849.4,309.8 860.2,320.3 864.4,332.9 865.7,343.3 872.5,354.6 873.0,366.3 873.2,379.5 880.6,390.5 887.5,403.4 888.1,415.0 897.1,392.9 906.1,404.1 910.2,414.1 914.1,391.8 920.8,401.9 925.9,379.7 930.6,390.3 935.6,368.6 936.6,379.3 936.9,390.5 938.3,400.8 942.7,411.4 947.7,389.2 951.2,366.1 954.4,342.6 964.4,318.4 969.1,293.7 972.2,305.4 975.7,280.6 978.5,292.4 981.9,304.1 986.1,315.4 993.0,326.2 1000.5,336.9 1003.2,312.5 1005.4,323.6 1005.8,300.7 1010.6,313.0 1012.3,323.9 1014.7,300.7 1015.0,312.1 1019.0,324.2 1020.5,300.2 1031.6,276.7 1034.3,288.7 1037.5,300.7 1037.9,281.3 1054.6,292.4 1058.0,304.9 1058.9,317.7 1060.9,330.3 1064.8,307.0 1068.5,318.7 1069.8,295.6" fill="none" stroke="#17becf" stroke-width="2"/>\n<line x1="1090" y1="242" x2="1118" y2="242" stroke="#17becf" stroke-width="3"/>\n<text x="1126" y="246" font-family="Arial" font-size="11" fill="#222">7. volume_p70 1h->30m RR 2.5 (+35.7%)</text>\n<polyline points="90.0,568.4 100.3,576.5 126.8,550.4 138.5,524.2 187.9,496.2 191.4,506.2 213.4,478.5 247.2,490.4 255.9,500.8 259.5,510.5 272.1,521.7 287.0,494.4 307.7,503.1 327.9,474.6 344.0,484.7 357.0,494.6 399.3,503.5 425.7,476.7 426.8,447.7 438.9,457.1 458.8,427.7 460.4,397.1 463.7,406.9 479.1,416.6 526.1,427.9 531.9,437.6 547.6,448.6 547.9,459.3 551.1,470.0 592.0,440.9 638.9,410.1 661.7,382.2 667.5,392.2 669.2,407.1 676.1,417.5 686.4,430.2 700.1,440.1 783.7,410.8 813.6,379.4 818.6,346.6 820.2,357.6 831.4,368.5 841.1,378.6 860.0,388.9 879.1,399.5 903.5,409.1 911.6,377.3 926.9,387.8 981.6,355.7 991.0,323.1 1003.0,333.9 1004.6,344.8 1038.2,310.8 1038.7,321.6 1049.7,332.2 1051.1,298.8" fill="none" stroke="#bcbd22" stroke-width="2"/>\n<line x1="1090" y1="269" x2="1118" y2="269" stroke="#bcbd22" stroke-width="3"/>\n<text x="1126" y="273" font-family="Arial" font-size="11" fill="#222">8. vwap_weekly 15m->1h RR 3.5 (+35.3%)</text>\n<polyline points="90.0,568.4 100.3,576.5 110.9,551.1 126.8,524.1 138.5,497.1 187.9,468.1 190.4,477.6 191.4,487.9 213.4,459.6 230.9,429.6 247.2,442.1 259.5,452.5 274.7,462.4 287.0,433.2 307.7,442.6 317.8,451.8 327.9,421.5 344.0,432.3 370.2,442.4 394.7,451.7 399.3,461.1 407.1,471.4 425.7,443.5 426.8,413.3 438.9,423.2 458.8,392.6 463.7,402.4 479.1,412.2 492.2,424.2 513.1,433.9 525.3,444.9 526.1,454.9 531.9,464.3 547.6,475.0 547.9,485.3 551.1,495.8 557.3,504.8 577.9,514.0 592.0,486.4 638.9,457.1 649.5,467.2 661.7,441.1 667.5,450.6 669.2,464.5 676.1,474.3 684.7,445.4 686.4,457.6 700.1,467.2 703.2,476.9 764.0,486.0 783.7,458.2 789.1,467.3 793.3,477.8 813.6,448.7 816.1,458.0 818.6,427.9 820.2,438.0 831.4,448.0 840.1,458.6 841.1,467.7 860.0,477.1 879.1,486.7 903.5,495.4 911.6,466.6 926.9,476.1 944.2,447.5 977.2,416.9 981.6,385.7 991.0,354.2 1003.0,364.7 1004.6,375.0 1038.2,342.0 1038.7,352.5 1045.9,322.2 1049.7,332.9 1051.1,299.5" fill="none" stroke="#e377c2" stroke-width="2"/>\n<line x1="1090" y1="296" x2="1118" y2="296" stroke="#e377c2" stroke-width="3"/>\n<text x="1126" y="300" font-family="Arial" font-size="11" fill="#222">9. vwap_daily 15m->1h RR 3.5 (+35.2%)</text>\n<polyline points="90.0,568.4 98.4,577.3 103.2,585.3 107.9,595.4 116.1,603.5 126.3,611.8 135.5,619.7 145.1,627.2 145.9,634.6 151.2,642.4 153.4,622.3 160.6,629.8 163.5,638.1 166.2,645.4 167.8,625.9 171.8,633.4 175.8,613.4 182.7,592.0 192.8,599.9 205.2,607.5 212.1,615.8 219.7,623.3 226.8,602.3 230.6,581.1 251.5,589.9 272.3,568.1 277.1,545.9 280.0,554.0 281.3,532.7 289.3,509.4 312.6,518.3 346.7,494.1 348.6,503.2 353.1,478.8 370.8,488.1 371.5,497.0 372.8,505.7 373.1,517.0 380.7,526.8 390.3,503.6 394.3,512.2 394.6,520.9 398.9,530.4 399.5,507.6 403.8,516.3 404.4,493.6 408.7,502.4 413.5,511.4 439.9,519.8 440.9,528.9 442.8,506.2 447.6,515.7 449.9,493.2 456.1,468.7 461.6,477.5 477.5,486.4 483.2,495.5 506.3,504.3 521.9,513.5 530.3,522.4 535.9,531.2 540.5,508.5 544.0,518.2 549.7,527.8 551.9,504.7 554.2,481.0 555.4,491.2 558.8,500.7 561.5,510.8 567.9,519.5 573.1,528.6 579.3,537.4 581.0,514.7 588.2,523.7 591.9,500.5 597.4,476.3 600.0,485.6 601.3,505.9 602.0,515.6 606.5,492.2 617.4,501.1 626.4,479.0 634.6,488.5 638.5,499.4 648.5,508.2 653.8,517.3 658.2,526.4 669.8,502.8 673.6,479.8 696.4,454.6 721.9,463.8 737.2,478.7 746.3,488.3 762.3,498.2 771.3,507.7 776.5,516.4 777.6,524.8 786.8,501.9 789.4,477.7 789.5,487.3 793.9,463.1 796.5,472.1 803.1,447.3 806.7,421.6 808.0,431.3 809.6,440.8 814.0,415.7 828.1,388.5 831.5,360.7 833.6,370.7 836.2,381.8 841.5,393.0 842.9,402.9 853.6,413.3 856.3,422.7 859.5,433.1 865.3,445.3 869.0,454.7 873.0,465.4 877.0,474.8 879.4,450.5 884.1,461.0 887.3,450.0 888.1,461.0 891.3,435.5 898.7,409.5 900.7,419.3 907.5,429.6 908.8,440.2 918.2,449.6 919.9,459.9 930.6,469.7 934.1,445.0 935.6,420.1 936.6,430.2 938.2,439.8 947.1,455.8 954.4,430.1 957.0,407.9 964.7,380.7 968.3,390.7 969.6,366.2 972.2,377.1 975.7,349.3 982.1,360.0 1003.1,331.3 1005.8,303.5 1015.8,314.6 1018.9,326.1 1022.8,296.7 1030.0,310.0 1032.3,321.3 1034.8,292.3 1038.0,306.3 1038.2,317.6 1054.6,328.3 1057.7,299.8 1059.1,311.9 1061.7,324.8 1068.6,336.0 1069.8,309.0" fill="none" stroke="#7f7f7f" stroke-width="2"/>\n<line x1="1090" y1="323" x2="1118" y2="323" stroke="#7f7f7f" stroke-width="3"/>\n<text x="1126" y="327" font-family="Arial" font-size="11" fill="#222">10. atr_p70 2h->30m RR 3 (+33.9%)</text>\n</svg>