<svg xmlns="http://www.w3.org/2000/svg" width="1200" height="720" viewBox="0 0 1200 720">
<rect width="100%" height="100%" fill="white"/>
<line x1="80" y1="650" x2="980" y2="650" stroke="#333"/>
<line x1="80" y1="40" x2="80" y2="650" stroke="#333"/>
<text x="80" y="24" font-family="Arial" font-size="18">Bybit ETHUSDT Perpetual CISD Grid Top Equity Curves</text>
<polyline points="80.0,499.1 127.2,518.5 154.0,537.8 196.3,556.4 225.2,574.9 239.2,505.7 291.0,431.7 325.0,451.4 361.9,470.9 375.9,490.4 384.6,509.6 428.7,528.4 459.1,547.7 466.9,566.3 510.6,494.7 522.8,513.7 545.3,532.5 554.1,551.0 563.6,569.5 586.5,588.1 625.7,517.6 641.4,444.8 702.4,368.4 748.0,289.0 768.8,208.0 783.9,230.5 805.9,252.6 869.7,274.1 895.7,191.5 928.7,105.3 938.8,128.5 979.4,40.0" fill="none" stroke="#1f77b4" stroke-width="2"/>
<text x="995" y="40" font-family="Arial" font-size="13" fill="#1f77b4">HURST_200_055 HTF 12h LTF 4h RR 4 Return 24.7%</text>
<polyline points="80.0,499.1 116.5,518.2 127.2,537.5 154.0,556.5 196.3,575.0 225.2,593.2 239.2,524.7 291.0,451.5 325.0,471.0 361.9,490.3 375.9,509.6 384.6,528.6 428.7,547.3 459.1,566.3 466.9,584.7 510.6,513.9 522.8,532.7 545.3,551.3 554.1,569.6 563.6,587.9 586.5,606.3 625.7,536.5 641.4,464.5 702.4,388.8 748.0,310.3 768.8,230.1 783.9,252.4 805.9,274.2 869.7,295.5 895.7,213.7 928.7,128.5 938.8,151.4 979.4,63.8" fill="none" stroke="#d62728" stroke-width="2"/>
<text x="995" y="64" font-family="Arial" font-size="13" fill="#d62728">HURST_100_055 HTF 12h LTF 4h RR 4 Return 23.4%</text>
<polyline points="80.0,499.1 95.9,519.0 116.5,537.9 127.2,557.0 154.0,575.8 196.3,594.1 225.2,612.1 239.2,544.4 291.0,472.0 325.0,491.2 361.9,510.3 375.9,529.4 384.6,548.3 428.7,566.7 459.1,585.5 466.9,603.7 510.6,533.6 522.8,552.2 545.3,570.6 554.1,588.8 563.6,606.9 586.5,625.1 625.7,556.0 641.4,484.7 702.4,409.9 748.0,332.2 768.8,252.9 783.9,274.9 805.9,296.5 869.7,317.6 895.7,236.7 928.7,152.4 938.8,175.1 979.4,88.4" fill="none" stroke="#2ca02c" stroke-width="2"/>
<text x="995" y="88" font-family="Arial" font-size="13" fill="#2ca02c">BASE HTF 12h LTF 4h RR 4 Return 22.1%</text>
<polyline points="80.0,499.1 127.2,518.5 154.0,537.8 196.3,556.4 225.2,574.9 238.2,514.6 290.2,450.3 325.0,469.7 361.9,489.0 375.9,508.4 384.6,527.4 428.7,546.0 459.1,565.1 466.9,583.5 510.2,521.5 522.8,540.2 545.3,558.8 554.1,577.0 563.6,595.3 586.5,613.6 625.1,552.8 641.4,490.4 702.4,425.2 733.3,357.8 768.8,289.5 783.9,311.1 805.9,332.3 869.7,353.0 892.6,283.6 928.7,211.5 938.8,233.6 973.4,159.9" fill="none" stroke="#9467bd" stroke-width="2"/>
<text x="995" y="112" font-family="Arial" font-size="13" fill="#9467bd">HURST_200_055 HTF 12h LTF 4h RR 3.5 Return 18.2%</text>
<polyline points="80.0,499.1 116.5,518.2 127.2,537.5 154.0,556.5 196.3,575.0 225.2,593.2 238.2,533.6 290.2,469.9 325.0,489.1 361.9,508.2 375.9,527.4 384.6,546.2 428.7,564.7 459.1,583.6 466.9,601.8 510.2,540.4 522.8,558.9 545.3,577.3 554.1,595.3 563.6,613.4 586.5,631.5 625.1,571.3 641.4,509.6 702.4,445.1 733.3,378.3 768.8,310.8 783.9,332.2 805.9,353.2 869.7,373.6 892.6,304.9 928.7,233.6 938.8,255.4 973.4,182.5" fill="none" stroke="#ff7f0e" stroke-width="2"/>
<text x="995" y="136" font-family="Arial" font-size="13" fill="#ff7f0e">HURST_100_055 HTF 12h LTF 4h RR 3.5 Return 17.0%</text>
<polyline points="80.0,499.1 95.9,519.0 116.5,537.9 127.2,557.0 154.0,575.8 196.3,594.1 225.2,612.1 238.2,553.1 290.2,490.1 325.0,509.1 361.9,528.1 375.9,547.0 384.6,565.7 428.7,583.9 459.1,602.6 466.9,620.6 510.2,559.9 522.8,578.2 545.3,596.3 554.1,614.2 563.6,632.1 586.5,650.0 625.1,590.5 641.4,529.4 702.4,465.6 733.3,399.5 768.8,332.7 783.9,353.9 805.9,374.6 869.7,394.9 892.6,326.9 928.7,256.3 938.8,278.0 973.4,205.8" fill="none" stroke="#1f77b4" stroke-width="2"/>
<text x="995" y="160" font-family="Arial" font-size="13" fill="#1f77b4">BASE HTF 12h LTF 4h RR 3.5 Return 15.8%</text>
<polyline points="80.0,499.1 127.2,426.6 196.2,446.5 318.3,466.4 354.0,486.3 370.3,505.4 384.8,432.0 420.2,451.8 510.1,376.2 550.1,298.4 627.8,320.1 641.3,239.6 791.5,261.4 819.6,283.8 914.1,305.9 980.0,225.4" fill="none" stroke="#d62728" stroke-width="2"/>
<text x="995" y="184" font-family="Arial" font-size="13" fill="#d62728">HMM_3STATE HTF 12h LTF 5m RR 4 Return 14.7%</text>
<polyline points="80.0,499.1 290.4,434.2 437.6,366.8 510.0,387.4 545.3,407.7 563.8,427.5 622.6,447.1 702.4,380.4 727.2,400.6 774.2,420.7 784.1,440.3 806.4,374.3 842.2,305.2 875.6,326.1 936.3,255.3" fill="none" stroke="#2ca02c" stroke-width="2"/>
<text x="995" y="208" font-family="Arial" font-size="13" fill="#2ca02c">HURST_200_055 HTF 1D LTF 12h RR 3.5 Return 13.1%</text>
<polyline points="80.0,499.1 291.0,424.9 471.0,347.5 510.0,368.3 545.3,388.8 563.8,408.7 622.6,428.6 702.4,351.6 727.2,372.1 774.2,392.4 784.1,412.3 808.2,335.6 842.2,255.0 875.6,276.5" fill="none" stroke="#9467bd" stroke-width="2"/>
<text x="995" y="232" font-family="Arial" font-size="13" fill="#9467bd">HURST_200_055 HTF 1D LTF 12h RR 4 Return 12.0%</text>
<polyline points="80.0,499.1 147.9,517.9 152.8,482.6 163.3,445.8 179.6,465.8 191.4,485.2 224.6,448.3 254.7,468.0 284.4,487.2 320.9,450.0 393.3,411.9 419.0,432.0 470.8,393.5 496.0,354.4 501.3,375.1 505.9,336.7 545.3,357.3 563.6,377.5 622.6,397.7 683.0,358.8 841.8,318.8 875.6,339.6 922.1,299.8 942.1,321.0 971.3,281.0" fill="none" stroke="#ff7f0e" stroke-width="2"/>
<text x="995" y="256" font-family="Arial" font-size="13" fill="#ff7f0e">HURST_100_055 HTF 1D LTF 4h RR 2 Return 11.7%</text>
<text x="80" y="700" font-family="Arial" font-size="12">UTC 2024-05-26 00:00 to 2026-05-23 07:54 | initial equity 10000</text>
</svg>